<svg xmlns="http://www.w3.org/2000/svg" xmlns:xlink="http://www.w3.org/1999/xlink" viewBox="0 0 405.11 309.79"><defs><style>.cls-1,.cls-2,.cls-7{fill:#a4df90;}.cls-1,.cls-10,.cls-11,.cls-13,.cls-14,.cls-16,.cls-17,.cls-18,.cls-19,.cls-2,.cls-5,.cls-6,.cls-9{stroke:#438e29;}.cls-1,.cls-10,.cls-11,.cls-13,.cls-14,.cls-16,.cls-17,.cls-18,.cls-19,.cls-2,.cls-20,.cls-21,.cls-5,.cls-6,.cls-9{stroke-linejoin:round;}.cls-1,.cls-10,.cls-6{stroke-width:1.8px;}.cls-11,.cls-14,.cls-17,.cls-19,.cls-2{stroke-width:2.12px;}.cls-3{opacity:0.46;}.cls-4{fill:#e8ebef;}.cls-11,.cls-5,.cls-9{fill:#cbedc0;}.cls-5{stroke-width:2.18px;}.cls-10,.cls-14,.cls-17,.cls-20,.cls-21,.cls-6{fill:none;}.cls-11,.cls-14,.cls-18,.cls-19,.cls-21,.cls-6{stroke-linecap:round;}.cls-8{clip-path:url(#clip-path);}.cls-16,.cls-18,.cls-9{stroke-width:2px;}.cls-12{clip-path:url(#clip-path-2);}.cls-13,.cls-16,.cls-18,.cls-19{fill:#fff;}.cls-13{stroke-width:2.42px;}.cls-15{clip-path:url(#clip-path-3);}.cls-20,.cls-21{stroke:#cbedc0;}.cls-21{stroke-width:1.08px;}</style><clipPath id="clip-path"><circle class="cls-1" cx="301.79" cy="119.61" r="45.95"/></clipPath><clipPath id="clip-path-2"><circle class="cls-1" cx="110.64" cy="119.61" r="45.95"/></clipPath><clipPath id="clip-path-3"><circle class="cls-2" cx="206.22" cy="157.13" r="54.23"/></clipPath></defs><title>Asset 23</title><g id="Layer_2" data-name="Layer 2"><g id="Layer_1-2" data-name="Layer 1"><g class="cls-3"><rect class="cls-4" x="41.18" y="192.91" width="293.76" height="77.67" rx="36.94" ry="36.94"/><rect class="cls-4" x="111.35" y="134.03" width="293.76" height="77.67" rx="36.94" ry="36.94"/><rect class="cls-4" x="63.46" y="30.82" width="182.11" height="73.87" rx="36.94" ry="36.94"/><rect class="cls-4" x="93.46" y="58.92" width="293.76" height="77.67" rx="36.94" ry="36.94"/><rect class="cls-4" y="133.77" width="293.76" height="77.67" rx="36.94" ry="36.94"/><rect class="cls-4" x="37.65" y="96.18" width="293.76" height="77.67" rx="36.94" ry="36.94"/><rect class="cls-4" x="136.18" y="232.11" width="146.88" height="77.67" rx="36.94" ry="36.94"/></g><rect class="cls-5" x="237.33" y="56.82" width="128.93" height="179.98" rx="3" ry="3"/><line class="cls-6" x1="265.3" y1="181.7" x2="338.29" y2="181.7"/><line class="cls-6" x1="265.3" y1="190.7" x2="338.29" y2="190.7"/><circle class="cls-7" cx="301.79" cy="119.61" r="45.95"/><g class="cls-8"><path class="cls-9" d="M308.74,127.55a19.77,19.77,0,0,0,11.89-18.15A19.38,19.38,0,0,0,301.42,90a19.13,19.13,0,0,0-19.21,19.11c0,8.08,5,15.7,12.05,18.54-16.25,4-26.89,18.53-27.32,41.53h69.73C336.67,146.18,325.19,131.24,308.74,127.55Z"/></g><circle class="cls-10" cx="301.79" cy="119.61" r="45.95"/><rect class="cls-7" x="276.77" y="202.85" width="50.05" height="17.1" rx="3" ry="3"/><polygon class="cls-9" points="329.57 160.18 329.57 177.15 334.5 173.1 339.57 177.27 339.57 160.18 329.57 160.18"/><path class="cls-5" d="M347.68,152.1a11.14,11.14,0,0,0-.16-1.92l-3-.88,1.9-2.47a11.82,11.82,0,0,0-2.24-3.08l-2.94,1,.09-3.11a11.73,11.73,0,0,0-3.62-1.17L336,143.07l-1.76-2.56a11.65,11.65,0,0,0-3.62,1.17l.08,3.11-2.93-1a11.38,11.38,0,0,0-2.24,3.08l1.9,2.47-3,.88a12.23,12.23,0,0,0-.16,1.92,11.63,11.63,0,0,0,.16,1.88l3,.89-1.91,2.48a11.64,11.64,0,0,0,2.22,3.07l3-1-.08,3.14a11.63,11.63,0,0,0,3.6,1.18l1.78-2.6,1.78,2.6a11.63,11.63,0,0,0,3.6-1.18l-.09-3.14,3,1a11.9,11.9,0,0,0,2.23-3.07l-1.91-2.48,3-.89A11.63,11.63,0,0,0,347.68,152.1Z"/><line class="cls-11" x1="331.89" y1="151.93" x2="334.56" y2="154.6"/><line class="cls-11" x1="340.04" y1="149.37" x2="334.7" y2="154.71"/><rect class="cls-5" x="46.18" y="56.82" width="128.93" height="179.98" rx="3" ry="3"/><line class="cls-6" x1="74.15" y1="181.7" x2="147.14" y2="181.7"/><line class="cls-6" x1="74.15" y1="190.7" x2="147.14" y2="190.7"/><circle class="cls-7" cx="110.64" cy="119.61" r="45.95"/><g class="cls-12"><path class="cls-9" d="M117.58,127.55a19.75,19.75,0,0,0,11.89-18.15A19.37,19.37,0,0,0,110.27,90a19.13,19.13,0,0,0-19.21,19.11c0,8.08,5,15.7,12,18.54-16.24,4-26.89,18.53-27.32,41.53h69.74C145.52,146.18,134,131.24,117.58,127.55Z"/></g><circle class="cls-10" cx="110.64" cy="119.61" r="45.95"/><rect class="cls-7" x="85.62" y="202.85" width="50.05" height="17.1" rx="3" ry="3"/><rect class="cls-13" x="134.52" y="90.11" width="143.39" height="200.16" rx="3" ry="3"/><line class="cls-14" x1="163.14" y1="230.41" x2="249.29" y2="230.41"/><line class="cls-14" x1="163.14" y1="241.03" x2="249.29" y2="241.03"/><circle class="cls-7" cx="206.22" cy="157.13" r="54.23"/><g class="cls-15"><path class="cls-16" d="M214.74,166.27a23.15,23.15,0,0,0,14-21.3,22.67,22.67,0,1,0-45.34-.26c0,9.53,5.88,18.32,14.21,21.67-19.17,4.69-31.74,21.8-32.24,48.8h82.3C247.71,188.18,234.16,170.63,214.74,166.27Z"/></g><circle class="cls-17" cx="206.22" cy="157.13" r="54.23"/><line class="cls-14" x1="183.73" y1="139.51" x2="227.49" y2="139.51"/><line class="cls-14" x1="224.8" y1="170.86" x2="224.8" y2="184.74"/><line class="cls-14" x1="186.92" y1="170.86" x2="186.92" y2="184.74"/><line class="cls-14" x1="173.12" y1="185.85" x2="240.07" y2="185.85"/><polygon class="cls-18" points="234.57 204.18 234.57 220.69 240 216.64 245.57 220.81 245.57 204.18 234.57 204.18"/><path class="cls-19" d="M253.17,195.64a12.23,12.23,0,0,0-.16-1.92l-3-.88,1.9-2.47a11.38,11.38,0,0,0-2.24-3.08l-2.93,1,.08-3.11a11.65,11.65,0,0,0-3.62-1.17l-1.76,2.56-1.76-2.56a11.82,11.82,0,0,0-3.62,1.17l.09,3.11-2.94-1a11.82,11.82,0,0,0-2.24,3.08l1.9,2.47-3,.88a12.23,12.23,0,0,0-.16,1.92,11.63,11.63,0,0,0,.15,1.88l3,.89L231,200.89a11.73,11.73,0,0,0,2.23,3.07l3-1.05-.09,3.14a11.63,11.63,0,0,0,3.6,1.18l1.78-2.6,1.78,2.6a11.69,11.69,0,0,0,3.61-1.18l-.09-3.14,3,1.05a11.48,11.48,0,0,0,2.22-3.07L250,198.41l3-.89A11.63,11.63,0,0,0,253.17,195.64Z"/><line class="cls-19" x1="237.37" y1="195.47" x2="240.04" y2="198.14"/><line class="cls-19" x1="245.52" y1="192.91" x2="240.19" y2="198.25"/><rect class="cls-7" x="176.68" y="255.36" width="59.07" height="20.18" rx="3" ry="3"/><path class="cls-20" d="M264,28.91l-.11,0-5-2.73-5,2.73a.47.47,0,0,1-.26.05.41.41,0,0,1-.24-.08.37.37,0,0,1-.16-.21.46.46,0,0,1,0-.26l.91-5.46-3.62-3.62a.45.45,0,0,1-.13-.23.39.39,0,0,1,0-.26.42.42,0,0,1,.13-.21.53.53,0,0,1,.24-.11l5.46-.91L258.45,13a.59.59,0,0,1,.18-.2.48.48,0,0,1,.5,0,.59.59,0,0,1,.18.2l2.26,4.53,5.46.91a.53.53,0,0,1,.24.11.43.43,0,0,1,.14.21.46.46,0,0,1,0,.26.45.45,0,0,1-.13.23l-3.62,3.62.91,5.46a.46.46,0,0,1,0,.26.37.37,0,0,1-.16.21.38.38,0,0,1-.13.06.39.39,0,0,1-.15,0Zm-5-3.77.11.05,4.36,2.38-.79-4.74a.53.53,0,0,1,0-.22.67.67,0,0,1,.12-.2L266,19.27l-4.79-.8a.4.4,0,0,1-.21-.09.58.58,0,0,1-.14-.17l-1.95-3.9-1.95,3.9a.46.46,0,0,1-.14.17.4.4,0,0,1-.21.09l-4.79.8,3.15,3.14a.67.67,0,0,1,.12.2.53.53,0,0,1,0,.22l-.79,4.74,4.36-2.38.11-.05.12,0Z"/><path class="cls-20" d="M371.39,41.16l-.11,0-5-2.73-5,2.73a.48.48,0,0,1-.26.06.5.5,0,0,1-.24-.09.39.39,0,0,1-.16-.2.51.51,0,0,1,0-.27l.91-5.45-3.62-3.63a.42.42,0,0,1-.13-.22.46.46,0,0,1,0-.26.46.46,0,0,1,.14-.22.66.66,0,0,1,.24-.11l5.46-.91,2.26-4.52a.51.51,0,0,1,.18-.2.48.48,0,0,1,.5,0,.51.51,0,0,1,.18.2L369,29.82l5.46.91a.66.66,0,0,1,.24.11.55.55,0,0,1,.14.22.46.46,0,0,1,0,.26.42.42,0,0,1-.13.22l-3.62,3.63.91,5.45a.51.51,0,0,1,0,.27.39.39,0,0,1-.16.2.38.38,0,0,1-.13.06.4.4,0,0,1-.15,0Zm-5-3.77.11,0,4.36,2.38-.79-4.74a.55.55,0,0,1,0-.22.62.62,0,0,1,.12-.19l3.15-3.15-4.79-.8a.4.4,0,0,1-.21-.09.47.47,0,0,1-.14-.17l-2-3.89-1.95,3.89a.47.47,0,0,1-.14.17.4.4,0,0,1-.21.09l-4.79.8,3.15,3.15a.62.62,0,0,1,.12.19.55.55,0,0,1,0,.22l-.79,4.74,4.36-2.38.11,0,.12,0Z"/><path class="cls-20" d="M20.88,91.91l-.11,0-5-2.73-5,2.73a.47.47,0,0,1-.26,0,.41.41,0,0,1-.24-.08.37.37,0,0,1-.16-.21.46.46,0,0,1,0-.26L11,85.91,7.36,82.29a.45.45,0,0,1-.13-.23.46.46,0,0,1,0-.26.52.52,0,0,1,.14-.21.53.53,0,0,1,.24-.11l5.46-.91L15.34,76a.59.59,0,0,1,.18-.2.48.48,0,0,1,.5,0,.59.59,0,0,1,.18.2l2.26,4.53,5.46.91a.53.53,0,0,1,.24.11.43.43,0,0,1,.14.21.46.46,0,0,1,0,.26.45.45,0,0,1-.13.23l-3.62,3.62.91,5.46a.46.46,0,0,1,0,.26.37.37,0,0,1-.16.21.38.38,0,0,1-.13.06.39.39,0,0,1-.15,0Zm-5-3.77.11,0,4.36,2.38-.79-4.74a.53.53,0,0,1,0-.22.67.67,0,0,1,.12-.2l3.15-3.14-4.79-.8a.4.4,0,0,1-.21-.09.58.58,0,0,1-.14-.17l-1.95-3.9-1.95,3.9a.58.58,0,0,1-.14.17.4.4,0,0,1-.21.09l-4.79.8,3.15,3.14a.67.67,0,0,1,.12.2.53.53,0,0,1,0,.22l-.79,4.74,4.36-2.38.11,0,.12,0Z"/><path class="cls-20" d="M204,58.91l-.11,0-5-2.73-5,2.73a.47.47,0,0,1-.26.05.41.41,0,0,1-.24-.08.37.37,0,0,1-.16-.21.46.46,0,0,1,0-.26l.91-5.46-3.62-3.62a.45.45,0,0,1-.13-.23.39.39,0,0,1,0-.26.42.42,0,0,1,.13-.21.53.53,0,0,1,.24-.11l5.46-.91L198.45,43a.59.59,0,0,1,.18-.2.48.48,0,0,1,.5,0,.59.59,0,0,1,.18.2l2.26,4.53,5.46.91a.53.53,0,0,1,.24.11.43.43,0,0,1,.14.21.46.46,0,0,1,0,.26.45.45,0,0,1-.13.23l-3.62,3.62.91,5.46a.46.46,0,0,1,0,.26.37.37,0,0,1-.16.21.38.38,0,0,1-.13.06.39.39,0,0,1-.15,0Zm-5-3.77.11,0,4.36,2.38-.79-4.74a.53.53,0,0,1,0-.22.67.67,0,0,1,.12-.2L206,49.27l-4.79-.8a.4.4,0,0,1-.21-.09.58.58,0,0,1-.14-.17l-2-3.9-1.95,3.9a.46.46,0,0,1-.14.17.4.4,0,0,1-.21.09l-4.79.8,3.15,3.14a.67.67,0,0,1,.12.2.53.53,0,0,1,0,.22l-.79,4.74,4.36-2.38.11,0,.12,0Z"/><line class="cls-21" x1="316.99" y1="27.84" x2="302.38" y2="27.84"/><line class="cls-21" x1="309.69" y1="20.54" x2="309.69" y2="35.14"/><line class="cls-21" x1="86.99" y1="17.84" x2="72.38" y2="17.84"/><line class="cls-21" x1="79.69" y1="10.54" x2="79.69" y2="25.14"/><line class="cls-21" x1="204.99" y1="7.84" x2="190.38" y2="7.84"/><line class="cls-21" x1="197.69" y1="0.54" x2="197.69" y2="15.14"/><path class="cls-20" d="M138.88,19l-.11-.05-5-2.72-5,2.72a.4.4,0,0,1-.26.06.62.62,0,0,1-.24-.08.46.46,0,0,1-.16-.21.5.5,0,0,1,0-.27L129,13l-3.62-3.63a.42.42,0,0,1-.13-.22.46.46,0,0,1,0-.26.55.55,0,0,1,.14-.22.66.66,0,0,1,.24-.11l5.46-.91,2.26-4.52a.51.51,0,0,1,.18-.2.48.48,0,0,1,.5,0,.51.51,0,0,1,.18.2l2.26,4.52,5.46.91a.66.66,0,0,1,.24.11.46.46,0,0,1,.14.22.46.46,0,0,1,0,.26.42.42,0,0,1-.13.22L138.56,13l.91,5.45a.5.5,0,0,1,0,.27.46.46,0,0,1-.16.21l-.13.06L139,19Zm-5-3.78.11.05,4.36,2.38-.79-4.74a.57.57,0,0,1,0-.22.62.62,0,0,1,.12-.19l3.15-3.15-4.79-.8a.49.49,0,0,1-.21-.08.62.62,0,0,1-.14-.18l-1.95-3.89-2,3.89a.62.62,0,0,1-.14.18.49.49,0,0,1-.21.08l-4.79.8,3.15,3.15a.62.62,0,0,1,.12.19.57.57,0,0,1,0,.22l-.79,4.74,4.36-2.38.11-.05h.24Z"/></g></g></svg>