<svg xmlns="http://www.w3.org/2000/svg" viewBox="0 0 398.67 310.76"><defs><style>.cls-1,.cls-11,.cls-2,.cls-3,.cls-4,.cls-8,.cls-9{fill:none;}.cls-1,.cls-2,.cls-3,.cls-4{stroke:#cbedc0;}.cls-1,.cls-10,.cls-11,.cls-2,.cls-3,.cls-4,.cls-7,.cls-8,.cls-9{stroke-linejoin:round;}.cls-1,.cls-10,.cls-11,.cls-3,.cls-7,.cls-8{stroke-width:2px;}.cls-1{stroke-dasharray:7.91;}.cls-2{stroke-width:1.7px;stroke-dasharray:10.22;}.cls-3{stroke-dasharray:12;}.cls-5{opacity:0.46;}.cls-6{fill:#e8ebef;}.cls-13,.cls-7{fill:#fff;}.cls-10,.cls-11,.cls-7,.cls-8,.cls-9{stroke:#438e29;}.cls-11,.cls-9{stroke-linecap:round;}.cls-9{stroke-width:3px;}.cls-10{fill:#cbedc0;}.cls-12{fill:#51af33;opacity:0.1;}</style></defs><title>Asset 22</title><g id="Layer_2" data-name="Layer 2"><g id="Layer_1-2" data-name="Layer 1"><circle class="cls-1" cx="291.91" cy="178.34" r="32.91"/><circle class="cls-1" cx="165.98" cy="44.5" r="32.91"/><circle class="cls-2" cx="130.79" cy="129.03" r="42.52"/><circle class="cls-3" cx="265.2" cy="90.37" r="49.91"/><path class="cls-4" d="M301.56,36.67l-.12,0-.41-.25q-.39-.23-1-.63t-1.38-1c-.51-.39-1-.83-1.58-1.31-.32-.29-.62-.58-.91-.87s-.55-.59-.8-.88-.49-.58-.71-.87-.42-.59-.6-.88a9.54,9.54,0,0,1-.62-1.12,10.23,10.23,0,0,1-.44-1.11,7.6,7.6,0,0,1-.26-1.1,6.87,6.87,0,0,1-.09-1.09,4.84,4.84,0,0,1,.39-1.94A5,5,0,0,1,294.12,22a5,5,0,0,1,1.58-1.07,4.84,4.84,0,0,1,1.94-.4,4.26,4.26,0,0,1,.7.07,4.38,4.38,0,0,1,.71.19,4.76,4.76,0,0,1,.7.3,5.87,5.87,0,0,1,.67.43,5,5,0,0,1,1.26,1.29,3.87,3.87,0,0,1,.55-.69,5.13,5.13,0,0,1,.7-.6,6.9,6.9,0,0,1,.67-.43,5.15,5.15,0,0,1,.69-.3,4.67,4.67,0,0,1,.71-.19,4.38,4.38,0,0,1,.71-.07,4.88,4.88,0,0,1,1.94.4,5,5,0,0,1,2.66,2.66,4.84,4.84,0,0,1,.39,1.94,6.87,6.87,0,0,1-.09,1.09,7.66,7.66,0,0,1-.27,1.1,10.14,10.14,0,0,1-.43,1.11,9.54,9.54,0,0,1-.62,1.12c-.18.29-.38.58-.6.88s-.45.58-.7.87-.53.59-.82.88-.59.58-.9.87c-.54.48-1.06.92-1.58,1.31s-1,.72-1.38,1-.73.48-1,.63l-.41.25-.12,0-.11,0ZM296.07,21.8a4.25,4.25,0,0,0-1.29.87,4.06,4.06,0,0,0-.86,1.28,3.82,3.82,0,0,0-.32,1.58,5.82,5.82,0,0,0,.38,2.1,9.51,9.51,0,0,0,1,1.94,13.27,13.27,0,0,0,1.32,1.72,19.31,19.31,0,0,0,1.44,1.43c.41.39.82.74,1.23,1.06l1.15.85.94.63.65.41.63-.41.95-.63c.35-.25.74-.53,1.14-.85s.83-.67,1.25-1.06.94-.89,1.43-1.43a12.44,12.44,0,0,0,1.32-1.72,9.51,9.51,0,0,0,1-1.94,6,6,0,0,0,.38-2.1,4,4,0,0,0-.32-1.58,3.93,3.93,0,0,0-.87-1.28,4.09,4.09,0,0,0-1.28-.87,3.93,3.93,0,0,0-1.57-.31,3.24,3.24,0,0,0-1.18.22,4.29,4.29,0,0,0-1.07.59,4.62,4.62,0,0,0-.84.81,3.41,3.41,0,0,0-.5.9.44.44,0,0,1-.17.23.39.39,0,0,1-.27.1.45.45,0,0,1-.29-.1.44.44,0,0,1-.17-.23,3.15,3.15,0,0,0-.5-.9,4.44,4.44,0,0,0-1.9-1.4,3.21,3.21,0,0,0-1.18-.22A3.93,3.93,0,0,0,296.07,21.8Z"/><path class="cls-4" d="M232.48,16.64l-.11,0-.42-.25c-.25-.15-.58-.36-1-.64s-.87-.6-1.38-1-1-.82-1.58-1.31c-.32-.29-.62-.58-.91-.87s-.55-.58-.8-.87-.5-.58-.72-.88-.41-.58-.59-.87a11.47,11.47,0,0,1-.62-1.12,9.82,9.82,0,0,1-.44-1.11,6.37,6.37,0,0,1-.26-1.11,6.77,6.77,0,0,1-.09-1.09A4.87,4.87,0,0,1,224,3.55,5.11,5.11,0,0,1,226.62.89,4.92,4.92,0,0,1,228.57.5a4.23,4.23,0,0,1,.7.06,4.72,4.72,0,0,1,.71.2,5.26,5.26,0,0,1,.7.3,5.32,5.32,0,0,1,.67.42,5.89,5.89,0,0,1,.7.61,5.65,5.65,0,0,1,.55.68,4.92,4.92,0,0,1,.56-.68,5.71,5.71,0,0,1,1.36-1,5.26,5.26,0,0,1,.7-.3,4.41,4.41,0,0,1,.71-.2,4.25,4.25,0,0,1,.71-.06,4.87,4.87,0,0,1,1.94.39A5.27,5.27,0,0,1,240.17,2a5.25,5.25,0,0,1,1.07,1.58,4.87,4.87,0,0,1,.39,1.94,6.77,6.77,0,0,1-.09,1.09,7.47,7.47,0,0,1-.27,1.11c-.12.36-.27.73-.44,1.11a9.57,9.57,0,0,1-.61,1.12q-.28.44-.6.87c-.22.3-.45.59-.71.88s-.52.58-.81.87l-.9.87c-.54.49-1.07.92-1.58,1.31s-1,.72-1.38,1-.74.49-1,.64l-.42.25-.11,0h-.24ZM227,1.77a4.11,4.11,0,0,0-1.29.86,4.25,4.25,0,0,0-.87,1.29,3.93,3.93,0,0,0-.32,1.57,6.1,6.1,0,0,0,.38,2.11,10.09,10.09,0,0,0,1,1.94,11.71,11.71,0,0,0,1.32,1.72,19.27,19.27,0,0,0,1.43,1.43c.42.38.83.73,1.24,1.05s.8.61,1.15.85.66.46.94.64l.64.4.64-.4c.27-.18.59-.39.94-.64s.74-.53,1.15-.85.82-.67,1.25-1.05.93-.9,1.42-1.43a12.5,12.5,0,0,0,1.33-1.72,9.51,9.51,0,0,0,1-1.94,6.09,6.09,0,0,0,.37-2.11,3.93,3.93,0,0,0-.31-1.57,4.08,4.08,0,0,0-.87-1.29,4.18,4.18,0,0,0-1.28-.86,3.93,3.93,0,0,0-1.57-.31,3.21,3.21,0,0,0-1.18.22,4.41,4.41,0,0,0-1.07.58,4.36,4.36,0,0,0-.84.82,3.12,3.12,0,0,0-.5.9.48.48,0,0,1-.17.23.49.49,0,0,1-.28.09.47.47,0,0,1-.28-.09.48.48,0,0,1-.17-.23,3.12,3.12,0,0,0-.5-.9,4.67,4.67,0,0,0-.84-.82,4.34,4.34,0,0,0-1.06-.58,3.24,3.24,0,0,0-1.18-.22A3.93,3.93,0,0,0,227,1.77Z"/><path class="cls-4" d="M163.9,40.45l-.11,0-.42-.24-1-.64q-.6-.41-1.38-1c-.51-.39-1-.83-1.57-1.31-.32-.29-.63-.58-.91-.87s-.56-.58-.81-.87-.49-.59-.71-.88-.42-.59-.6-.88a9.44,9.44,0,0,1-.61-1.12,8.61,8.61,0,0,1-.45-1.11,9.19,9.19,0,0,1-.26-1.1,6.77,6.77,0,0,1-.09-1.09,4.68,4.68,0,0,1,.4-1.94,5,5,0,0,1,1.07-1.59A5.07,5.07,0,0,1,158,24.71a4.84,4.84,0,0,1,1.94-.39,4.14,4.14,0,0,1,.7.06,4.38,4.38,0,0,1,.71.19,5.74,5.74,0,0,1,1.38.73A5.71,5.71,0,0,1,164,26.59a4.31,4.31,0,0,1,.55-.68,5.1,5.1,0,0,1,.7-.61,5.32,5.32,0,0,1,.67-.42,5.23,5.23,0,0,1,.69-.31,5,5,0,0,1,.71-.19,4.34,4.34,0,0,1,.71-.06,4.84,4.84,0,0,1,1.94.39,5,5,0,0,1,2.66,2.66,4.84,4.84,0,0,1,.4,1.94,6.8,6.8,0,0,1-.1,1.09,7.66,7.66,0,0,1-.27,1.1,8.45,8.45,0,0,1-.43,1.11,9.44,9.44,0,0,1-.61,1.12c-.19.29-.39.59-.61.88s-.45.59-.7.88-.53.58-.81.87-.59.58-.91.87c-.54.48-1.06.92-1.58,1.31s-1,.72-1.37,1l-1,.64-.41.24-.12,0-.11,0Zm-5.49-14.86a4.07,4.07,0,0,0-2.15,2.14,3.85,3.85,0,0,0-.32,1.58,6,6,0,0,0,.38,2.1,10.43,10.43,0,0,0,1,1.95,13.14,13.14,0,0,0,1.33,1.72,19.27,19.27,0,0,0,1.43,1.43c.41.38.82.73,1.24,1.05s.79.6,1.14.85.67.46.94.63l.65.41.63-.41c.28-.17.6-.38.95-.63s.74-.53,1.15-.85.82-.67,1.24-1.05.94-.9,1.43-1.43a13.14,13.14,0,0,0,1.33-1.72,10.38,10.38,0,0,0,1-1.95,6,6,0,0,0,.38-2.1,4,4,0,0,0-.31-1.58,4,4,0,0,0-2.16-2.14,3.93,3.93,0,0,0-1.57-.32,3.47,3.47,0,0,0-1.18.22,4.85,4.85,0,0,0-1.07.59,4.62,4.62,0,0,0-.84.81,3.41,3.41,0,0,0-.5.9.45.45,0,0,1-.17.24.44.44,0,0,1-.27.09.45.45,0,0,1-.28-.09.53.53,0,0,1-.18-.24,2.92,2.92,0,0,0-.5-.9,4.26,4.26,0,0,0-.83-.81,4.57,4.57,0,0,0-1.06-.59,3.48,3.48,0,0,0-1.19-.22A4,4,0,0,0,158.41,25.59Z"/><path class="cls-4" d="M82.89,74.27l-.11,0L82.36,74l-1-.63q-.6-.41-1.38-1c-.51-.39-1-.83-1.57-1.31-.32-.29-.63-.58-.91-.87s-.56-.59-.81-.88-.49-.58-.71-.87-.42-.59-.6-.88a9.44,9.44,0,0,1-.61-1.12,8.61,8.61,0,0,1-.45-1.11,8.91,8.91,0,0,1-.26-1.11A6.68,6.68,0,0,1,74,63.12a4.67,4.67,0,0,1,.4-1.93,5,5,0,0,1,1.07-1.59A5.07,5.07,0,0,1,77,58.53a4.68,4.68,0,0,1,1.94-.4,4.15,4.15,0,0,1,.7.07,3.55,3.55,0,0,1,.71.19,4.76,4.76,0,0,1,.7.3,6,6,0,0,1,.68.43,5,5,0,0,1,.69.6,5.13,5.13,0,0,1,.56.69,4.38,4.38,0,0,1,.55-.69,5,5,0,0,1,.7-.6,6.9,6.9,0,0,1,.67-.43,5.15,5.15,0,0,1,.69-.3,4,4,0,0,1,.71-.19,4.38,4.38,0,0,1,.71-.07,4.68,4.68,0,0,1,1.94.4,5,5,0,0,1,2.66,2.66,4.83,4.83,0,0,1,.4,1.93,6.7,6.7,0,0,1-.1,1.09,7.47,7.47,0,0,1-.27,1.11,8.45,8.45,0,0,1-.43,1.11,9.44,9.44,0,0,1-.61,1.12c-.19.29-.39.58-.61.88s-.45.58-.7.87l-.81.88c-.29.29-.59.58-.91.87-.54.48-1.06.92-1.58,1.31s-1,.72-1.37,1-.74.48-1,.63l-.41.25-.12,0-.11,0ZM77.4,59.4a4.09,4.09,0,0,0-1.28.87,3.93,3.93,0,0,0-.87,1.28,4,4,0,0,0-.32,1.57,6.06,6.06,0,0,0,.38,2.11,10,10,0,0,0,1,1.94,12.5,12.5,0,0,0,1.33,1.72A17.52,17.52,0,0,0,79,70.32c.41.39.83.74,1.24,1.06s.79.6,1.14.85l.94.63.65.4.63-.4,1-.63c.36-.25.74-.53,1.15-.85s.82-.67,1.24-1.06.94-.89,1.43-1.43a12.5,12.5,0,0,0,1.33-1.72,10.65,10.65,0,0,0,1-1.94,6,6,0,0,0,.37-2.11,4,4,0,0,0-.31-1.57,4.09,4.09,0,0,0-.87-1.28,4.25,4.25,0,0,0-1.29-.87A3.93,3.93,0,0,0,87,59.09a3.24,3.24,0,0,0-1.18.22,4.48,4.48,0,0,0-1.07.59,4.26,4.26,0,0,0-.83.81,2.92,2.92,0,0,0-.5.9.46.46,0,0,1-.18.23.39.39,0,0,1-.27.1.4.4,0,0,1-.28-.1.46.46,0,0,1-.18-.23,2.92,2.92,0,0,0-.5-.9,4.49,4.49,0,0,0-1.89-1.4A3.26,3.26,0,0,0,79,59.09,4,4,0,0,0,77.4,59.4Z"/><path class="cls-4" d="M342.41,91.21l-.12,0-.41-.25c-.26-.15-.59-.36-1-.64s-.87-.6-1.38-1-1-.82-1.58-1.31c-.32-.29-.62-.58-.91-.87s-.55-.58-.8-.87-.49-.58-.71-.88-.42-.58-.6-.87a11.47,11.47,0,0,1-.62-1.12,11.26,11.26,0,0,1-.44-1.12,8.37,8.37,0,0,1-.26-1.1,6.77,6.77,0,0,1-.09-1.09,4.87,4.87,0,0,1,.39-1.94A5.1,5.1,0,0,1,335,76.54a5,5,0,0,1,1.58-1.08,4.84,4.84,0,0,1,1.94-.39,4.23,4.23,0,0,1,.7.06,5.71,5.71,0,0,1,.71.19,6.21,6.21,0,0,1,.7.31,4.69,4.69,0,0,1,.67.42,5.19,5.19,0,0,1,.7.61,5.76,5.76,0,0,1,.56.68,4.21,4.21,0,0,1,.55-.68,5.19,5.19,0,0,1,.7-.61,5.32,5.32,0,0,1,.67-.42,6.07,6.07,0,0,1,.69-.31,6.22,6.22,0,0,1,.71-.19,4.34,4.34,0,0,1,.71-.06,4.84,4.84,0,0,1,1.94.39,5.09,5.09,0,0,1,2.66,2.66,4.87,4.87,0,0,1,.39,1.94,6.77,6.77,0,0,1-.09,1.09,7.06,7.06,0,0,1-.27,1.1,9.25,9.25,0,0,1-.44,1.12,9.57,9.57,0,0,1-.61,1.12q-.27.44-.6.87c-.22.3-.45.59-.71.88s-.52.58-.81.87-.59.58-.9.87c-.54.49-1.06.92-1.58,1.31s-1,.72-1.38,1-.73.49-1,.64l-.41.25-.12,0h-.23Zm-5.49-14.87a4,4,0,0,0-2.15,2.15,3.77,3.77,0,0,0-.32,1.57,5.88,5.88,0,0,0,.38,2.11,10.34,10.34,0,0,0,1,1.94,13.27,13.27,0,0,0,1.32,1.72,19.33,19.33,0,0,0,1.44,1.43q.62.57,1.23,1l1.15.85c.35.25.67.46.94.64l.65.4.63-.4.95-.64c.35-.25.73-.53,1.14-.85s.83-.67,1.25-1,.94-.9,1.42-1.43a11.12,11.12,0,0,0,1.33-1.72,9.77,9.77,0,0,0,1-1.94,6.1,6.1,0,0,0,.38-2.11,3.93,3.93,0,0,0-.32-1.57,4,4,0,0,0-2.15-2.15,3.93,3.93,0,0,0-1.57-.32,3.22,3.22,0,0,0-1.18.23,4.6,4.6,0,0,0-1.07.58,4.67,4.67,0,0,0-.84.82,3.12,3.12,0,0,0-.5.9.48.48,0,0,1-.17.23.44.44,0,0,1-.27.09.5.5,0,0,1-.29-.09.48.48,0,0,1-.17-.23,2.9,2.9,0,0,0-.5-.9,4.61,4.61,0,0,0-.83-.82,4.41,4.41,0,0,0-1.07-.58,3.22,3.22,0,0,0-1.18-.23A3.93,3.93,0,0,0,336.92,76.34Z"/><path class="cls-4" d="M125.39,132l-.11,0-.42-.24c-.25-.15-.58-.36-1-.64s-.86-.6-1.38-1-1-.83-1.57-1.31c-.32-.29-.63-.58-.91-.87s-.56-.58-.81-.87-.49-.58-.71-.88a9.78,9.78,0,0,1-.6-.88,10.18,10.18,0,0,1-.61-1.11,9.35,9.35,0,0,1-.45-1.12,8.37,8.37,0,0,1-.26-1.1,6.77,6.77,0,0,1-.09-1.09,4.71,4.71,0,0,1,.4-1.94,5.12,5.12,0,0,1,1.07-1.59,5.25,5.25,0,0,1,1.58-1.07,4.84,4.84,0,0,1,1.94-.39,4.14,4.14,0,0,1,.7.06,5.71,5.71,0,0,1,.71.19,6.21,6.21,0,0,1,.7.31,4.79,4.79,0,0,1,.68.42,5.71,5.71,0,0,1,1.25,1.29,4.82,4.82,0,0,1,.55-.68,5.89,5.89,0,0,1,.7-.61,5.32,5.32,0,0,1,.67-.42,7,7,0,0,1,.69-.31,6.82,6.82,0,0,1,.71-.19,4.34,4.34,0,0,1,.71-.06,4.84,4.84,0,0,1,1.94.39,5.17,5.17,0,0,1,1.59,1.07,5.12,5.12,0,0,1,1.07,1.59,4.88,4.88,0,0,1,.4,1.94,6.8,6.8,0,0,1-.1,1.09,7.06,7.06,0,0,1-.27,1.1,9.16,9.16,0,0,1-.43,1.12,10.18,10.18,0,0,1-.61,1.11c-.19.3-.39.59-.61.88a11.24,11.24,0,0,1-.7.88q-.39.43-.81.87c-.29.29-.59.58-.91.87-.54.48-1.06.92-1.58,1.31s-1,.72-1.37,1-.74.49-1,.64l-.41.24a.43.43,0,0,1-.12,0h-.23Zm-5.49-14.87a4.06,4.06,0,0,0-1.28.86,4.05,4.05,0,0,0-1.19,2.86,6,6,0,0,0,.38,2.1,10.13,10.13,0,0,0,1,2,13.14,13.14,0,0,0,1.33,1.72,19.27,19.27,0,0,0,1.43,1.43c.41.38.83.73,1.24,1.05s.79.6,1.14.85l.94.64.65.4.63-.4c.28-.18.6-.39,1-.64s.74-.53,1.15-.85.82-.67,1.24-1.05.94-.9,1.43-1.43a13.14,13.14,0,0,0,1.33-1.72,10.74,10.74,0,0,0,1-2,6,6,0,0,0,.37-2.1,3.93,3.93,0,0,0-.31-1.57,4.13,4.13,0,0,0-.87-1.29,4.22,4.22,0,0,0-1.29-.86,3.93,3.93,0,0,0-1.57-.32,3.26,3.26,0,0,0-1.18.23,4.44,4.44,0,0,0-1.07.58,4,4,0,0,0-.83.82,2.71,2.71,0,0,0-.5.9.5.5,0,0,1-.18.23.44.44,0,0,1-.27.09.45.45,0,0,1-.28-.09.5.5,0,0,1-.18-.23,2.71,2.71,0,0,0-.5-.9,4,4,0,0,0-.83-.82,4.2,4.2,0,0,0-1.06-.58,3.27,3.27,0,0,0-1.19-.23A4,4,0,0,0,119.9,117.14Z"/><g class="cls-5"><rect class="cls-6" x="56.05" y="191.9" width="269.15" height="78.99" rx="36.94" ry="36.94"/><rect class="cls-6" x="129.51" y="132.02" width="269.15" height="78.99" rx="36.94" ry="36.94"/><rect class="cls-6" x="122.28" y="55.64" width="269.15" height="78.99" rx="36.94" ry="36.94"/><rect class="cls-6" y="131.75" width="269.15" height="78.99" rx="36.94" ry="36.94"/><rect class="cls-6" x="52.82" y="93.52" width="269.15" height="78.99" rx="36.94" ry="36.94"/><rect class="cls-6" x="161.35" y="6.68" width="134.58" height="78.99" rx="36.94" ry="36.94"/><rect class="cls-6" x="143.1" y="231.77" width="134.58" height="78.99" rx="36.94" ry="36.94"/></g><rect class="cls-7" x="81.08" y="152.22" width="115" height="141" rx="3" ry="3"/><rect class="cls-7" x="92.08" y="249.22" width="15" height="15" rx="3" ry="3"/><rect class="cls-7" x="92.08" y="211.22" width="15" height="15" rx="3" ry="3"/><rect class="cls-7" x="92.08" y="172.22" width="15" height="15" rx="3" ry="3"/><line class="cls-8" x1="123.08" y1="180.22" x2="179.08" y2="180.22"/><line class="cls-8" x1="123.08" y1="218.22" x2="179.08" y2="218.22"/><line class="cls-8" x1="123.08" y1="257.22" x2="179.08" y2="257.22"/><line class="cls-9" x1="94.12" y1="176.62" x2="100" y2="183.18"/><line class="cls-9" x1="115.37" y1="168.14" x2="100.31" y2="183.2"/><line class="cls-9" x1="94.47" y1="253.1" x2="100.35" y2="259.66"/><line class="cls-9" x1="115.72" y1="244.62" x2="100.66" y2="259.68"/><line class="cls-9" x1="94.47" y1="215.1" x2="100.35" y2="221.66"/><line class="cls-9" x1="115.72" y1="206.62" x2="100.66" y2="221.68"/><rect class="cls-10" x="153.08" y="43.22" width="124" height="219" rx="6" ry="6"/><rect class="cls-7" x="170.08" y="74.22" width="91" height="157"/><circle class="cls-7" cx="216.39" cy="246.26" r="5.39"/><line class="cls-11" x1="195.08" y1="57.22" x2="235.08" y2="57.22"/><circle class="cls-7" cx="216.35" cy="157.02" r="22.03"/><line class="cls-9" x1="205.62" y1="157.98" x2="211.56" y2="164.61"/><line class="cls-9" x1="227.08" y1="149.41" x2="211.86" y2="164.63"/><polygon class="cls-12" points="172.08 77.22 259.85 77.22 172.08 230.54 172.08 77.22"/><path class="cls-13" d="M213.86,109.22h-2.48c-1.88,0-2.3,0-2.3-1.9V79.22h6v28.1C215.08,109.23,215.74,109.22,213.86,109.22Z"/><path class="cls-13" d="M225.2,105.22h-2.37c-.9,0-2.75,0-2.75-.93V79.22h7v25.3C227.08,105,225.63,105.22,225.2,105.22Z"/></g></g></svg>